<svg xmlns="http://www.w3.org/2000/svg" width="49" height="36.781" viewBox="0 0 49 36.781">
  <metadata><?xpacket begin="﻿" id="W5M0MpCehiHzreSzNTczkc9d"?>
<x:xmpmeta xmlns:x="adobe:ns:meta/" x:xmptk="Adobe XMP Core 5.6-c138 79.159824, 2016/09/14-01:09:01        ">
   <rdf:RDF xmlns:rdf="http://www.w3.org/1999/02/22-rdf-syntax-ns#">
      <rdf:Description rdf:about=""/>
   </rdf:RDF>
</x:xmpmeta>
                                                                                                    
                                                                                                    
                                                                                                    
                                                                                                    
                                                                                                    
                                                                                                    
                                                                                                    
                                                                                                    
                                                                                                    
                                                                                                    
                                                                                                    
                                                                                                    
                                                                                                    
                                                                                                    
                                                                                                    
                                                                                                    
                                                                                                    
                                                                                                    
                                                                                                    
                                                                                                    
                           
<?xpacket end="w"?></metadata>
<defs>
    <style>
      .cls-1 {
        fill: #3d296f;
        fill-rule: evenodd;
      }
    </style>
  </defs>
  <path id="icon-hoteis" class="cls-1" d="M402.545,299.076a5.554,5.554,0,0,1,5.618-5.475h12.612a5.654,5.654,0,0,1,4.691,2.467,5.657,5.657,0,0,1,4.691-2.467H442.77a5.555,5.555,0,0,1,5.618,5.475v0.252h1.406v-5.339a6.1,6.1,0,0,0-6.165-6.008H407.3a6.1,6.1,0,0,0-6.166,6.008v5.339h1.407v-0.252h0Zm50.239,2.809H398.149a2.335,2.335,0,0,0-2.362,2.3v13.359a2.335,2.335,0,0,0,2.362,2.3h0.983l-1.162,3.194a1.27,1.27,0,0,0,.8,1.632,1.339,1.339,0,0,0,.438.074,1.309,1.309,0,0,0,1.236-.852l1.472-4.048h47.1l1.472,4.048a1.309,1.309,0,0,0,1.236.852,1.339,1.339,0,0,0,.438-0.074,1.27,1.27,0,0,0,.8-1.632l-1.162-3.194h0.983a2.334,2.334,0,0,0,2.361-2.3V304.186A2.334,2.334,0,0,0,452.784,301.885Zm-22.627-5.727a2.96,2.96,0,0,0-2.994,2.918v0.252h18.6v-0.252a2.96,2.96,0,0,0-2.994-2.918H430.157Zm-21.994,0a2.96,2.96,0,0,0-2.994,2.918v0.252h18.6v-0.252a2.96,2.96,0,0,0-3-2.918H408.163Z" transform="translate(-400.969 -287.969)"/>
</svg>
