<svg xmlns="http://www.w3.org/2000/svg" width="49" height="48" viewBox="0 0 49 48">
  <metadata><?xpacket begin="﻿" id="W5M0MpCehiHzreSzNTczkc9d"?>
<x:xmpmeta xmlns:x="adobe:ns:meta/" x:xmptk="Adobe XMP Core 5.6-c138 79.159824, 2016/09/14-01:09:01        ">
   <rdf:RDF xmlns:rdf="http://www.w3.org/1999/02/22-rdf-syntax-ns#">
      <rdf:Description rdf:about=""/>
   </rdf:RDF>
</x:xmpmeta>
                                                                                                    
                                                                                                    
                                                                                                    
                                                                                                    
                                                                                                    
                                                                                                    
                                                                                                    
                                                                                                    
                                                                                                    
                                                                                                    
                                                                                                    
                                                                                                    
                                                                                                    
                                                                                                    
                                                                                                    
                                                                                                    
                                                                                                    
                                                                                                    
                                                                                                    
                                                                                                    
                           
<?xpacket end="w"?></metadata>
<defs>
    <style>
      .cls-1 {
        fill: #3d296f;
        fill-rule: evenodd;
      }
    </style>
  </defs>
  <path id="icon-restaurantes" class="cls-1" d="M146.26,311.973c-0.2.017-.408,0.026-0.613,0.026a7.248,7.248,0,0,1-1.635-.205l-12.318,12.357a1.556,1.556,0,0,0,0,2.195l3.188,3.2a1.543,1.543,0,0,0,2.187,0L151.874,314.7l-2.744-2.97Zm32.416-19.8a1.477,1.477,0,0,0-2.092,0l-7.982,8.008a1.935,1.935,0,0,1-2.734-2.739l7.943-7.966a1.542,1.542,0,1,0-2.177-2.184L163.7,295.26a1.935,1.935,0,0,1-2.733-2.739l7.981-8.007a1.484,1.484,0,1,0-2.095-2.1l-8.98,9.009a8.344,8.344,0,0,0-2.142,7.977l6.02,6.039a8.282,8.282,0,0,0,7.949-2.151l8.981-9.008A1.488,1.488,0,0,0,178.676,292.175Zm-43.618-8.949a1.63,1.63,0,0,0-1.151-.478,1.655,1.655,0,0,0-.272.023,1.627,1.627,0,0,0-1.195.9,14.267,14.267,0,0,0,2.739,16.263l7.639,7.662a3.989,3.989,0,0,0,2.829,1.176c0.113,0,.227,0,0.34-0.014l4.435-.38,19.339,20.929a1.622,1.622,0,0,0,1.164.523h0.028a1.636,1.636,0,0,0,1.156-.478l3.312-3.323a1.639,1.639,0,0,0,0-2.311Z" transform="translate(-130.563 -282)"/>
</svg>
