<svg xmlns="http://www.w3.org/2000/svg" width="49" height="45.312" viewBox="0 0 49 45.312">
  <metadata><?xpacket begin="﻿" id="W5M0MpCehiHzreSzNTczkc9d"?>
<x:xmpmeta xmlns:x="adobe:ns:meta/" x:xmptk="Adobe XMP Core 5.6-c138 79.159824, 2016/09/14-01:09:01        ">
   <rdf:RDF xmlns:rdf="http://www.w3.org/1999/02/22-rdf-syntax-ns#">
      <rdf:Description rdf:about=""/>
   </rdf:RDF>
</x:xmpmeta>
                                                                                                    
                                                                                                    
                                                                                                    
                                                                                                    
                                                                                                    
                                                                                                    
                                                                                                    
                                                                                                    
                                                                                                    
                                                                                                    
                                                                                                    
                                                                                                    
                                                                                                    
                                                                                                    
                                                                                                    
                                                                                                    
                                                                                                    
                                                                                                    
                                                                                                    
                                                                                                    
                           
<?xpacket end="w"?></metadata>
<defs>
    <style>
      .cls-1 {
        fill: #3d296f;
        fill-rule: evenodd;
      }
    </style>
  </defs>
  <path id="icon-eventos" class="cls-1" d="M986.9,299.038L973.631,297.8a2.294,2.294,0,0,1-1.9-1.394l-4.751-11.413a2.281,2.281,0,0,0-4.219,0L958.049,296.4a2.246,2.246,0,0,1-1.9,1.394l-13.264,1.243a2.268,2.268,0,0,0-1.292,3.955l10,8.7a2.238,2.238,0,0,1,.722,2.222l-3,12.2a2.288,2.288,0,0,0,3.383,2.486l11.06-6.441a2.314,2.314,0,0,1,2.318,0l11.06,6.441a2.281,2.281,0,0,0,3.383-2.486l-2.965-12.2a2.241,2.241,0,0,1,.722-2.222l10-8.7A2.3,2.3,0,0,0,986.9,299.038Z" transform="translate(-940.406 -283.594)"/>
</svg>
